# xmcd
#
# Track frame offsets: 
#        150
#        13022
#        22242
#        40382
#        50550
#        61490
#        72310
#        87152
#        97475
#        112897
#        125092
#        138195
#        154680
#        171057
#        183382
#        197745
#        206672
#        213810
#        239720
#        247787
#        261152
#        272502
#        283730
#        296857
#        309557
#        321242
#        332545
#        343812
#
# Disc length: 4776 seconds
#
# Revision: 2
# Processed by: cddbd v1.5.2PL0 Copyright (c) Steve Scherf et al.
# Submitted via: ExactAudioCopy v1.3
#
DISCID=b612a61c
DTITLE=Wynn Stewart - Wishful Thinking_CD07
DYEAR=2000
DGENRE=Country
TTITLE0=Unforgotten Man
TTITLE1=High Heaven
TTITLE2=For The Good Times
TTITLE3=Hello Little Rock (with 2nd vocal)
TTITLE4=You Can't Take It With You (with 2nd vocal)
TTITLE5=How Many Miles Am I Out Of My Mind (with 2nd vocal)
TTITLE6=Paint Me A Rainbow
TTITLE7=Everything Needs A Little Woman's Touch
TTITLE8=I Know They'll Make Room For You
TTITLE9=Search Through The Ashes
TTITLE10=Poison Red Berries
TTITLE11=My And My Jesus Would Know
TTITLE12=Love Ain't Worth A Dime Unless It's Free
TTITLE13=It's Raining In Seattle
TTITLE14=If I Were You (And I Wish I Were)
TTITLE15=Knock On Wood
TTITLE16=(Lord) Take Me With You
TTITLE17=Riverside Of Memphis
TTITLE18=It Always Rains On Me
TTITLE19=The Kid 'n Me
TTITLE20=To Make Things Better
TTITLE21=What A Good Time I Didn't Have Last Night
TTITLE22=That's My Woman
TTITLE23=Why Don't You Come To Me
TTITLE24=When
TTITLE25=Ugg
TTITLE26=Second Best
TTITLE27=Vin Rose
EXTD=
EXTT0=
EXTT1=
EXTT2=
EXTT3=
EXTT4=
EXTT5=
EXTT6=
EXTT7=
EXTT8=
EXTT9=
EXTT10=
EXTT11=
EXTT12=
EXTT13=
EXTT14=
EXTT15=
EXTT16=
EXTT17=
EXTT18=
EXTT19=
EXTT20=
EXTT21=
EXTT22=
EXTT23=
EXTT24=
EXTT25=
EXTT26=
EXTT27=
PLAYORDER=
